<svg width="1024" height="743" viewBox="0 0 1024 743" fill="none" xmlns="http://www.w3.org/2000/svg">
<path d="M572.265 115.572C573.052 115.421 573.947 115.322 574.743 115.463C575.717 115.636 576.573 116.497 577.056 117.314C580.979 123.952 574.835 245.575 574.123 262.588C573.363 280.778 573.06 299.007 572.407 317.207C572.052 327.114 573.048 352.741 570.784 360.616C567.044 361.445 529.714 371.238 527.644 369.333C524.152 366.12 517.061 350.961 514.315 345.569C504.959 327.202 494.693 309.15 485.549 290.668C484.04 287.635 479.095 275.94 477.366 274.782C476.245 275.094 475.772 276.007 475.69 277.208C474.479 294.876 474.948 313.373 474.385 331.012C474.094 340.12 477.589 377.255 473.428 382.976C468.556 386.235 434.553 392.762 427.125 393.844C424.028 394.434 421.008 396.879 418.368 393.961C417.396 390.985 417.489 387.559 417.503 384.448C417.652 351.265 420.174 318.052 420.97 284.914L422.415 211.777C422.579 197.353 422.402 182.904 422.864 168.476C423.137 159.96 422.542 155.63 431.677 152.801C437.182 151.096 442.755 149.831 448.314 148.312C455.542 146.338 462.717 144.013 470.003 142.324C473.93 141.446 476.946 143.66 478.603 147.127C489.444 169.806 499.696 192.786 510.632 215.432C513.974 222.354 517.658 230.25 519.998 237.499C520.667 204.759 519.474 171.608 520.131 138.843C520.159 137.429 521.247 131.465 522.333 130.589C527.069 126.772 536.228 126.158 542.098 124.243C552.292 121.195 562.095 117.967 572.265 115.572Z" fill="#1A1A1A"/>
<path d="M765.79 298.954L771.914 137.248C772.368 123.209 771.942 109.124 772.003 95.0786C772.025 90.1225 771.586 84.6374 772.146 79.7273C772.383 77.65 773.264 75.7719 774.78 74.3139C776.047 73.0952 777.553 72.2309 779.201 71.6479C782.771 70.3851 819.897 59.968 821.725 60.1607C823.238 60.3201 824.572 61.5438 825.38 62.7509C828.057 66.7505 825.841 128.31 825.816 137.998C825.802 143.261 824.761 151.883 826.736 156.811C827.052 157.597 827.415 157.929 828.238 158.15C833.526 159.565 852.174 154.343 856.893 151.341C860.239 149.213 861.824 146.504 862.621 142.664C864.348 134.346 864.13 125.467 864.214 117.004C864.356 102.838 864.044 88.6912 863.951 74.5269C863.912 68.5314 862.924 60.9443 864.56 55.2425C865.193 53.0356 866.835 51.5562 868.7 50.3377C871.616 48.4324 875.066 47.173 878.374 46.1458C884.126 44.3596 914.227 37.3781 918.756 38.2357C920.148 38.4992 920.972 39.1071 921.711 40.3047C924.255 44.4247 921.177 86.8807 920.813 95.2914C919.754 119.765 919.882 144.262 919.428 168.75C919.241 178.815 919.251 188.937 918.932 198.992C918.724 205.519 918.063 212.008 918.005 218.545L917.861 256.257C917.865 261.5 919.611 286.605 913.999 287.775C905.391 289.569 871.048 299.68 864.072 298.027C860.664 294.989 862.162 276.764 862.332 271.265L863.297 238.503C863.424 233.988 864.493 218.094 861.977 216.076C858.004 212.89 832.533 218.368 828.008 219.62C827.334 245.876 828.352 272.472 827.752 298.737C827.694 301.283 827.344 305.754 825.092 307.277C824.06 307.838 821.534 309.061 820.193 309.312C803.272 312.513 786.29 317.638 769.283 319.821C763.108 320.614 765.558 302.884 765.79 298.954Z" fill="#1A1A1A"/>
<path d="M384.978 161.109C387.637 160.853 389.352 160.375 391.413 162.043C392.271 163.54 392.456 164.702 392.414 166.445C391.737 194.62 391.128 222.848 390.372 251.016C390.086 261.699 391.09 271.376 390.931 281.367C390.716 294.854 389.66 310.212 388.427 323.649C385.984 350.293 382.648 381.177 362.348 400.861C345.818 416.888 321.399 424.903 298.585 425.02C282.1 424.836 264.848 419.442 253.188 407.411C241.296 395.142 240.433 379.84 239.72 364.023C239.084 349.927 238.973 336.556 239.003 322.498C238.826 299.039 238.962 275.58 239.412 252.125C239.406 240.796 239.982 229.097 240.244 217.74C240.327 214.121 240.228 201.321 240.787 198.839C241.227 196.875 242.446 195.174 244.164 194.126C246.659 192.605 264.563 189.138 268.618 188.113C274.636 186.594 291.469 181.708 296.783 182.878C298.76 184.39 298.903 187.31 298.954 189.722C299.226 202.813 298.463 216.125 298.189 229.193L297.04 306.249C296.761 321.045 296.003 336.949 298.874 351.509C302.028 367.503 325.368 366.193 329.249 350.798C334.892 328.415 334.496 304.014 335.09 280.948L336.854 200.492C337.017 194.245 336.388 178.135 338.974 173.427C343.879 169.258 376.395 163.065 384.978 161.109Z" fill="#1A1A1A"/>
<path d="M165.511 151.166C172.101 150.514 173.42 151.147 173.727 157.936C174.02 173.609 174.004 189.968 172.884 205.6C172.235 214.65 172.184 222.478 171.856 231.456C170.712 257.916 169.876 284.39 169.349 310.87C169.258 316.111 169.575 321.255 169.471 326.429L168.909 361.987C168.767 367.835 167.959 373.853 168.236 379.678C168.345 381.966 168.697 384.206 169.923 386.182C172.55 390.416 218.709 375.348 225.535 377.434C226.308 377.671 226.409 378.039 226.741 378.751C228.969 383.535 228.438 423.818 227.843 430.78C227.675 432.742 227.153 434.544 226.524 436.401C222.166 437.698 210.851 439.57 205.877 440.566C191.773 443.365 177.687 446.254 163.619 449.232C148.782 453.18 133.48 456.009 118.635 460.019C114.623 461.103 109.704 462.299 105.596 461.5C104.129 460.131 103.759 458.459 103.442 456.494C102.895 453.103 103.237 449.568 103.276 446.144C103.394 436.043 104.28 425.977 104.281 415.875C104.283 396.047 103.756 376.177 104.167 356.35C104.392 345.494 105.507 334.629 105.814 323.762C106.214 309.632 105.822 295.381 105.73 281.246C105.658 270.335 105.93 259.404 105.603 248.49C105.395 241.525 104.542 234.58 104.444 227.611C104.324 219.103 105.338 210.556 105.383 202.033C105.405 197.803 103.324 168.773 104.962 166.881C107.767 163.643 158.221 152.131 165.511 151.166Z" fill="#1A1A1A"/>
<path d="M685.034 86.1626C695.971 85.9424 706.791 86.8015 717.098 90.7886C726.892 94.5772 737.956 102.57 742.212 112.483C745.201 119.445 747.387 129.988 744.223 137.25C740.587 145.592 716.149 164.125 707.305 167.29C706.101 167.721 703.971 168.302 702.727 167.754C697.729 165.55 695.613 148.631 685.211 144.173C681.589 142.621 677.879 142.947 674.298 144.373C668.492 146.687 665.253 151.765 662.89 157.317C652.551 181.613 649.841 249.408 659.862 273.771C661.861 278.632 664.881 282.843 669.928 284.848C681.187 289.321 692.229 278.487 698.175 270.2C700.41 267.084 705.866 256.178 708.768 254.907C715.31 255.352 722.65 259.247 729.03 261.391C731.694 262.286 745.762 266.223 747.064 267.683C749.351 270.249 746.157 282.552 745.242 286.385C744.044 295.63 736.453 311.359 730.795 318.802C714.797 339.847 692.181 343.727 667.799 345.007C605.249 348.289 591.724 276.469 594.596 228.308C598.113 169.317 615.324 95.3872 685.034 86.1626Z" fill="#1A1A1A"/>
<path d="M293.035 484.441C310.563 450.382 360.452 457.42 369.554 494.716C375.969 521.004 371.748 557.806 341.499 566.33C336.597 567.678 331.508 568.223 326.432 567.944C319.916 568.139 313.654 565.807 307.89 562.905C285.002 551.384 280.424 505.374 293.035 484.441ZM333.65 544.551C345.171 540.906 346.851 528.918 347.204 518.276C347.557 507.66 346.533 493.345 336.155 487.518C332.495 485.471 329.197 485.857 325.139 486.055C319.316 489.054 316.105 493.107 314.288 499.467C310.156 513.925 309.446 549.931 333.65 544.551Z" fill="#1A1A1A"/>
<path d="M734.777 462.72C760.316 461.042 775.765 483.643 777.376 506.837C779.345 535.2 770.962 564.888 738.126 567.923C727.347 568.283 717.609 565.949 709.116 558.708C687.539 540.31 688.079 496.334 705.904 475.592C713.191 467.113 723.767 463.3 734.777 462.72ZM739.504 544.726C756.171 539.37 754.653 512.565 750.966 498.895C748.305 489.031 741.747 485.239 731.719 486.02C720.146 490.397 717.817 502.023 717.816 513.228C717.814 529.213 719.256 546.755 739.504 544.726Z" fill="#1A1A1A"/>
<path d="M849.173 463.501L872.925 463.432L872.923 565.124L872.761 566.423C870.531 567.598 853.758 567.027 850.138 566.982C841.406 551.596 828.62 529.525 819.121 514.969C820.167 529.447 819.424 552.064 819.37 567.05L795.928 567.019C796.398 558.748 796.06 547.848 796.061 539.275L796.043 488.576C796.028 481.092 795.559 470.668 796.099 463.479L817.291 463.471C820.29 467.677 825.828 478.066 828.653 482.966L849.338 518.697C849.016 500.382 849.658 482.118 849.173 463.501Z" fill="#1A1A1A"/>
<path d="M506.192 597.096C509.174 597.08 528.522 596.614 529.825 597.568L530.016 598.433C530.767 601.923 530.377 623.838 530.366 629.208L530.322 697.969L508.081 698.016C499.926 684.933 492.68 670.902 484.624 657.719C482.001 653.426 479.277 648.932 476.931 644.502C477.265 662.003 477.007 680.378 477.024 697.947L452.943 698.062C453.772 693.06 453.421 671.936 453.42 665.499L453.23 597.15C456.113 596.991 459.619 597.078 462.552 597.072C466.728 597.057 471.097 596.971 475.255 597.128L475.657 597.665C478.517 601.543 482.038 608.001 484.557 612.376L498.721 636.917C500.238 639.517 503.76 646.24 505.442 648.182L505.944 648.01C506.4 644.562 505.865 638.568 506.008 634.69C506.444 622.853 505.437 608.748 506.192 597.096Z" fill="#1A1A1A"/>
<path d="M718.499 597.174C729.4 596.717 756.163 596.117 765.712 598.906C793.609 607.056 796.616 644.836 769.38 658.9C771.893 664.48 791.62 694.625 789.156 697.692C785.491 698.29 776.024 697.988 771.874 697.953L764.367 697.938C757.231 687.999 752.259 674.858 745.225 664.691C744.181 663.182 743.755 663.34 742.202 663.136C740.747 665.057 741.218 693.701 741.175 697.979L718.061 697.953L718.033 626.919C718.032 622.441 717.702 599.707 718.499 597.174ZM741.042 641.884C747.059 641.776 753.65 642.388 758.71 639.083C761.718 635.5 762.402 632.763 762.05 628.162C761.231 617.457 748.92 618.851 741.225 618.901C741.288 626.191 741.54 634.694 741.042 641.884Z" fill="#1A1A1A"/>
<path d="M516.076 463.451C524.432 463.501 532.788 463.473 541.143 463.368C541.149 482.053 541.431 501.64 541.016 520.251C541.153 533.607 539.871 547.217 530.185 557.324C516.609 571.491 489.024 571.923 475.009 558.242C464.875 548.349 464.01 534.248 463.992 521.015L464.039 463.433L488.695 463.427L488.62 506.181C488.625 511.294 488.644 516.589 488.708 521.688C488.901 537.094 490.22 548.287 509.124 544.021C512.67 541.48 514.81 538.34 515.403 533.961C516.531 525.63 516.125 516.869 516.123 508.439L516.076 463.451Z" fill="#1A1A1A"/>
<path d="M237.342 462.695C237.975 462.604 238.611 462.542 239.25 462.511C252.281 461.998 263.421 465.313 273.09 474.124C270.796 479.569 265.725 490.036 262.481 494.627C255.001 489.338 247.473 484.465 237.835 485.616C234.226 486.047 229.756 491.143 231.406 494.021C236.613 503.099 251.823 503.712 260.282 510.101C266.435 514.079 271.129 519.581 272.361 527.23C276.118 550.557 262.966 563.951 241.46 567.831C226.145 568.667 215.349 566.396 203.143 556.745C205.118 551.638 209.825 540.992 212.645 536.425C220.058 541.457 225.998 545.346 235.403 545.068C240.98 544.903 247.897 542.409 246.946 535.474C246.007 528.624 231.589 525.156 225.804 522.725C222.667 521.405 219.695 519.72 216.951 517.707C203.313 507.495 202.917 488.425 212.523 474.916C217.905 467.348 228.331 463.746 237.342 462.695Z" fill="#1A1A1A"/>
<path d="M634.644 597.145C655.074 596.989 675.505 596.988 695.934 597.142C696.033 604.707 695.958 612.273 695.71 619.834C687.35 620.315 667.073 620.233 658.75 619.729C659.087 625.334 658.944 631.405 658.912 637.058L684.497 637.017C684.744 642.374 685.131 652.076 684.375 657.159C678.121 657.223 664.61 657.662 658.99 657.069L659.003 668.375L658.986 675.989L695.491 676.055C696.062 682.611 696.076 691.271 695.664 697.861C675.608 698.334 654.273 697.99 634.117 697.982L634.049 630.862C634.046 626.19 633.639 600.199 634.644 597.145Z" fill="#1A1A1A"/>
<path d="M374.534 597.108C394.368 597.023 414.898 596.773 434.68 597.152C435.281 603.235 434.963 613.806 434.919 620.228C425.685 619.203 408.968 620.249 398.75 619.816C398.882 624.138 399.035 632.98 398.469 636.949L423.953 636.993L423.988 657.295C415.731 657.11 407.119 657.18 398.837 657.145L398.829 673.125C398.732 674.253 398.738 674.741 398.77 675.843C401.354 676.314 407.961 676.049 410.904 676.036L435.075 675.945L434.99 697.986L374.051 697.989L374.034 627.244C374.032 622.876 373.704 599.712 374.534 597.108Z" fill="#1A1A1A"/>
<path d="M323.767 597.164C338.966 595.386 350.447 599.101 360.808 610.249C356.391 619.297 355.409 623.335 349.461 631.82C344.614 626.215 340.514 621.669 332.522 620.81C327.943 620.328 323.361 621.705 319.806 624.633C308.908 633.618 309.395 660.559 318.311 671.601C330.011 686.09 346.499 669.234 349.909 669.487C351.488 671.171 352.339 673.554 353.311 675.709C355.163 678.802 358.428 685.557 359.474 688.919C352.242 694.666 347.68 697.931 338.279 699.439C307.125 704.433 287.387 683.464 286.236 653.146C285.232 626.709 294.643 601.506 323.767 597.164Z" fill="#1A1A1A"/>
<path d="M558.185 463.335C579.748 464.128 608.402 463.694 630.171 463.335C630.568 470.898 630.32 479.262 630.2 486.88C622.314 486.37 614.752 486.943 607.124 486.509C607.247 505.214 607.266 523.92 607.181 542.625L607.128 567.034L582.573 567.015C582.974 541.242 581.687 511.858 582.878 486.527C575.728 486.959 565.599 486.562 558.083 486.675C558.056 478.976 557.923 471.007 558.185 463.335Z" fill="#1A1A1A"/>
<path d="M546.6 597.118C570.207 596.945 595.432 596.618 618.94 597.189L618.997 619.913L593.891 619.919L593.923 673.875C593.98 681.848 593.964 689.822 593.874 697.795C587.757 698.291 575.551 697.987 569.024 698.045C569.743 693.502 569.432 678.009 569.43 672.459C569.357 654.929 569.389 637.399 569.526 619.87C561.688 619.993 553.849 619.987 546.012 619.851C546.092 615.199 545.949 600.969 546.6 597.118Z" fill="#1A1A1A"/>
<path d="M390.506 463.458L415.858 463.426C415.433 481.794 416.265 501.083 415.911 519.511C415.769 526.875 416.325 537.07 415.655 544.169C426.851 543.98 438.362 544.076 449.584 544.036C449.611 551.676 449.564 559.316 449.443 566.955C431.398 567.667 408.405 567.114 390.073 566.919L390.065 493.563C390.065 489.657 389.734 465.96 390.506 463.458Z" fill="#1A1A1A"/>
<path d="M649.127 463.429C657.266 463.522 665.407 463.496 673.546 463.351C673.384 497.238 674.24 533.332 673.393 567.001C665.472 567.166 657.021 567.031 649.062 567.028L649.127 463.429Z" fill="#1A1A1A"/>
</svg>
