<svg width="259" height="68" viewBox="0 0 259 68" fill="none" xmlns="http://www.w3.org/2000/svg">
<path d="M79.132 28.4813C78.8387 28.4813 78.6254 28.4413 78.492 28.3613C78.332 28.2812 78.2654 28.1612 78.292 28.0012C78.3187 27.6546 78.7587 27.4012 79.612 27.2412C80.572 27.0279 81.3987 26.7212 82.092 26.3212C82.812 25.9212 83.3054 25.2679 83.572 24.3612L89.212 6.00125C89.5054 5.06792 89.5454 4.46792 89.332 4.20125C89.1187 3.90791 88.5587 3.65458 87.652 3.44125C87.3054 3.36125 87.0654 3.25458 86.932 3.12125C86.8254 2.98792 86.772 2.82792 86.772 2.64125C86.7987 2.45458 86.9187 2.32125 87.132 2.24125C87.372 2.16125 87.6254 2.12125 87.892 2.12125C88.532 2.12125 89.1054 2.13458 89.612 2.16125C90.1187 2.18792 90.5987 2.22792 91.052 2.28125C91.532 2.30791 92.0387 2.32125 92.572 2.32125C93.1587 2.32125 93.732 2.30791 94.292 2.28125C94.852 2.25458 95.4254 2.22792 96.012 2.20125C96.5987 2.17458 97.212 2.16125 97.852 2.16125C98.412 2.16125 98.6654 2.32125 98.612 2.64125C98.612 2.85458 98.4787 3.01458 98.212 3.12125C97.9454 3.22792 97.6254 3.30792 97.252 3.36125C96.5054 3.46792 95.8787 3.61458 95.372 3.80125C94.8654 3.98792 94.4387 4.24125 94.092 4.56125C93.772 4.85458 93.532 5.26792 93.372 5.80125L88.132 23.2812C87.7587 24.5346 87.6787 25.4679 87.892 26.0812C88.132 26.6679 88.7054 26.9613 89.612 26.9613H92.172C93.532 26.9613 94.652 26.8146 95.532 26.5212C96.4387 26.2279 97.172 25.8412 97.732 25.3612C98.3187 24.8546 98.812 24.3212 99.212 23.7612C99.612 23.1746 100.025 22.5346 100.452 21.8412C100.585 21.6546 100.692 21.5212 100.772 21.4412C100.879 21.3612 101.012 21.3212 101.172 21.3212C101.305 21.3212 101.399 21.3746 101.452 21.4812C101.505 21.5879 101.532 21.7212 101.532 21.8812C101.532 22.1479 101.452 22.5479 101.292 23.0812C101.159 23.5879 100.972 24.1479 100.732 24.7612C100.492 25.3746 100.252 25.9612 100.012 26.5212C99.772 27.0812 99.5587 27.5079 99.372 27.8012C99.2654 27.9612 99.132 28.1212 98.972 28.2812C98.812 28.4146 98.6387 28.4813 98.452 28.4813C97.252 28.4813 96.0387 28.4679 94.812 28.4413C93.5854 28.4146 92.3587 28.3879 91.132 28.3613C89.932 28.3346 88.7454 28.3079 87.572 28.2812C86.4254 28.2546 85.3587 28.2412 84.372 28.2412C83.4387 28.2412 82.5587 28.2812 81.732 28.3613C80.932 28.4413 80.0654 28.4813 79.132 28.4813ZM105.973 28.8413C105.573 28.8413 105.187 28.6679 104.813 28.3213C104.467 28.0012 104.2 27.6279 104.013 27.2012C103.853 26.7479 103.84 26.3612 103.973 26.0412L108.013 16.5213C108.2 16.0946 108.307 15.7346 108.333 15.4412C108.36 15.1479 108.267 15.0012 108.053 15.0012C107.92 15.0012 107.68 15.1212 107.333 15.3612C106.987 15.5746 106.613 15.8412 106.213 16.1612C105.813 16.4812 105.44 16.8012 105.093 17.1212C104.933 17.2546 104.76 17.3212 104.573 17.3212C104.413 17.2946 104.333 17.2146 104.333 17.0812C104.333 16.9212 104.373 16.7346 104.453 16.5213C104.56 16.2812 104.707 16.0279 104.893 15.7612C105.613 14.8279 106.387 14.0412 107.213 13.4012C108.04 12.7612 108.84 12.2546 109.613 11.8812C110.413 11.5079 111.08 11.3212 111.613 11.3212C111.827 11.3212 112.053 11.4412 112.293 11.6812C112.56 11.8946 112.76 12.1479 112.893 12.4412C113.027 12.7346 113.027 13.0012 112.893 13.2412C112.147 14.8146 111.373 16.4946 110.573 18.2812C109.8 20.0412 109 21.8546 108.173 23.7212C107.933 24.2279 107.8 24.6812 107.773 25.0812C107.747 25.4546 107.867 25.6413 108.133 25.6413C108.4 25.6413 108.8 25.4012 109.333 24.9212C109.867 24.4146 110.467 23.7746 111.133 23.0013C111.8 22.2279 112.493 21.4146 113.213 20.5612C114.067 19.6012 114.88 18.6012 115.653 17.5612C116.427 16.5212 117.107 15.5612 117.693 14.6812C118.307 13.8012 118.733 13.1479 118.973 12.7212C119.213 12.2946 119.453 11.9746 119.693 11.7612C119.96 11.5479 120.227 11.4412 120.493 11.4412C120.76 11.4412 121.013 11.5479 121.253 11.7612C121.52 11.9746 121.707 12.2279 121.813 12.5212C121.947 12.7879 121.96 13.0412 121.853 13.2812L117.173 24.5212C116.987 24.9212 116.907 25.2412 116.933 25.4812C116.96 25.7212 117.08 25.8412 117.293 25.8412C117.587 25.8412 118 25.6679 118.533 25.3212C119.093 24.9479 119.667 24.5212 120.253 24.0412C120.867 23.5612 121.36 23.1346 121.733 22.7612C121.787 22.7079 121.827 22.6812 121.853 22.6812C121.96 22.6812 122.053 22.7346 122.133 22.8412C122.24 22.9212 122.293 23.0146 122.293 23.1212C122.293 23.2812 122.213 23.4679 122.053 23.6812C121.92 23.8679 121.733 24.0812 121.493 24.3212C121.253 24.5612 120.987 24.8012 120.693 25.0412C120.427 25.2546 120.147 25.4546 119.853 25.6413C119.56 25.8012 119.293 25.9346 119.053 26.0412C118.6 26.4946 118.08 26.9079 117.493 27.2812C116.933 27.6279 116.36 27.8812 115.773 28.0412C115.187 28.2012 114.587 28.2412 113.973 28.1612C113.733 28.1346 113.52 27.9346 113.333 27.5612C113.147 27.1879 113.12 26.8546 113.253 26.5612C113.573 25.8679 113.92 25.1212 114.293 24.3212C114.667 23.5212 115.013 22.7612 115.333 22.0412C115.653 21.2946 115.907 20.6679 116.093 20.1612C116.2 19.8679 116.173 19.7079 116.013 19.6812C115.88 19.6546 115.747 19.7212 115.613 19.8812C114.44 21.2412 113.36 22.4812 112.373 23.6012C111.413 24.6946 110.533 25.6279 109.733 26.4012C108.933 27.1746 108.213 27.7746 107.573 28.2012C106.96 28.6279 106.427 28.8413 105.973 28.8413ZM126.909 28.8813C126.722 28.8813 126.522 28.8146 126.309 28.6813C126.096 28.5479 125.896 28.3746 125.709 28.1612C125.549 27.9212 125.429 27.6679 125.349 27.4012C125.269 27.1079 125.296 26.8412 125.429 26.6012L129.829 15.6812C130.256 14.6946 130.229 14.2012 129.749 14.2012C129.536 14.2012 129.269 14.2279 128.949 14.2812C128.629 14.3346 128.282 14.4812 127.909 14.7212C127.536 14.9612 127.136 15.3479 126.709 15.8812C126.602 15.9879 126.469 16.0412 126.309 16.0412C126.176 16.0146 126.082 15.9079 126.029 15.7212C126.029 15.5346 126.082 15.3079 126.189 15.0412C126.322 14.7479 126.469 14.4679 126.629 14.2012C126.816 13.9079 126.976 13.6812 127.109 13.5212C127.589 12.9079 128.202 12.4146 128.949 12.0412C129.722 11.6679 130.629 11.4679 131.669 11.4412C132.096 11.4412 132.442 11.5612 132.709 11.8012C133.002 12.0146 133.202 12.2946 133.309 12.6412C133.416 12.9879 133.389 13.3612 133.229 13.7612L130.789 20.0412C130.709 20.2279 130.749 20.3346 130.909 20.3612C131.069 20.3879 131.189 20.3212 131.269 20.1612C132.309 18.3746 133.362 16.8279 134.429 15.5212C135.496 14.2146 136.536 13.2146 137.549 12.5212C138.589 11.8012 139.562 11.4412 140.469 11.4412C141.189 11.4412 141.762 11.6812 142.189 12.1612C142.642 12.6146 142.909 13.2012 142.989 13.9212C143.069 14.6146 142.936 15.3879 142.589 16.2412L139.149 24.3612C138.749 25.2679 138.802 25.7212 139.309 25.7212C139.576 25.7212 139.909 25.6146 140.309 25.4012C140.736 25.1879 141.149 24.9346 141.549 24.6412C141.976 24.3479 142.349 24.0679 142.669 23.8012C143.016 23.5346 143.242 23.3479 143.349 23.2412C143.429 23.1879 143.496 23.1346 143.549 23.0812C143.602 23.0279 143.656 23.0013 143.709 23.0013C143.789 23.0013 143.869 23.0412 143.949 23.1212C144.029 23.2012 144.069 23.2946 144.069 23.4012C144.069 23.7212 143.976 24.0146 143.789 24.2812C143.042 25.1346 142.242 25.9079 141.389 26.6012C140.536 27.2946 139.656 27.8412 138.749 28.2412C137.842 28.6413 136.949 28.8413 136.069 28.8413C135.802 28.8413 135.522 28.7479 135.229 28.5613C134.962 28.3746 134.749 28.1346 134.589 27.8412C134.456 27.5479 134.456 27.2546 134.589 26.9613C135.389 25.0946 136.202 23.2546 137.029 21.4412C137.882 19.6279 138.669 17.7879 139.389 15.9212C139.736 15.0412 139.856 14.4146 139.749 14.0412C139.642 13.6679 139.416 13.4679 139.069 13.4412C138.749 13.4412 138.389 13.5879 137.989 13.8812C137.589 14.1746 137.136 14.5879 136.629 15.1212C136.149 15.6546 135.642 16.2679 135.109 16.9612C134.816 17.3346 134.416 17.8946 133.909 18.6412C133.429 19.3879 132.882 20.2412 132.269 21.2012C131.656 22.1612 131.029 23.1612 130.389 24.2012C129.776 25.2412 129.189 26.2412 128.629 27.2012C128.336 27.7346 128.042 28.1479 127.749 28.4413C127.482 28.7346 127.202 28.8813 126.909 28.8813ZM150.299 28.8813C149.659 28.8813 149.019 28.6813 148.379 28.2812C147.766 27.8546 147.246 27.2946 146.819 26.6012C146.419 25.9079 146.233 25.1212 146.259 24.2412C146.286 23.1479 146.459 22.0146 146.779 20.8412C147.099 19.6679 147.553 18.5212 148.139 17.4012C148.726 16.2812 149.446 15.2812 150.299 14.4012C151.153 13.4946 152.126 12.7746 153.219 12.2412C154.313 11.7079 155.513 11.4412 156.819 11.4412C157.646 11.4412 158.286 11.6146 158.739 11.9612C159.219 12.2812 159.459 12.6679 159.459 13.1212C159.459 13.5746 159.313 14.0412 159.019 14.5212C158.726 14.9746 158.419 15.2012 158.099 15.2012C157.886 15.2012 157.699 15.1079 157.539 14.9212C157.406 14.7346 157.246 14.4679 157.059 14.1212C156.873 13.7746 156.633 13.4679 156.339 13.2012C156.073 12.9079 155.739 12.7612 155.339 12.7612C154.726 12.7612 154.099 13.1079 153.459 13.8012C152.819 14.4679 152.219 15.3346 151.659 16.4012C151.126 17.4679 150.686 18.6146 150.339 19.8412C150.019 21.0679 149.846 22.2146 149.819 23.2812C149.819 24.1879 150.019 24.8546 150.419 25.2812C150.819 25.6812 151.366 25.8812 152.059 25.8812C152.859 25.8812 153.539 25.7212 154.099 25.4012C154.659 25.0546 155.179 24.6146 155.659 24.0812C155.819 23.9212 155.953 23.8012 156.059 23.7212C156.166 23.6412 156.286 23.6012 156.419 23.6012C156.659 23.6012 156.779 23.7612 156.779 24.0812C156.779 24.4546 156.593 24.9079 156.219 25.4412C155.873 25.9746 155.379 26.5079 154.739 27.0412C154.126 27.5746 153.433 28.0146 152.659 28.3613C151.913 28.7079 151.126 28.8813 150.299 28.8813ZM160.961 28.9613C160.801 28.9613 160.628 28.8946 160.441 28.7613C160.254 28.6279 160.094 28.4679 159.961 28.2812C159.828 28.0679 159.761 27.8412 159.761 27.6012C159.761 27.1746 159.801 26.7612 159.881 26.3612C159.988 25.9346 160.121 25.4412 160.281 24.8812L165.841 6.24125C165.974 5.78792 166.094 5.32125 166.201 4.84125C166.334 4.33458 166.401 3.93458 166.401 3.64125C166.401 3.34792 166.228 3.13458 165.881 3.00125C165.561 2.84125 165.228 2.70792 164.881 2.60125C164.694 2.52125 164.521 2.45458 164.361 2.40125C164.201 2.32125 164.121 2.21458 164.121 2.08125C164.121 1.97458 164.174 1.86791 164.281 1.76125C164.388 1.65458 164.614 1.53458 164.961 1.40125C165.201 1.32125 165.548 1.20125 166.001 1.04125C166.481 0.881248 166.988 0.721249 167.521 0.561249C168.054 0.401248 168.534 0.267915 168.961 0.16125C169.414 0.0545828 169.721 0.00124931 169.881 0.00124931C170.041 0.00124931 170.214 0.0145825 170.401 0.0412488C170.588 0.0679151 170.681 0.201248 170.681 0.441248C170.681 0.707915 170.654 0.934582 170.601 1.12125C170.548 1.30792 170.494 1.50791 170.441 1.72125L164.961 19.8812C164.908 20.0679 164.921 20.1612 165.001 20.1612C165.081 20.1612 165.161 20.1079 165.241 20.0012C166.334 18.3212 167.481 16.8279 168.681 15.5212C169.908 14.1879 171.081 13.1479 172.201 12.4012C173.348 11.6279 174.361 11.2412 175.241 11.2412C176.201 11.2412 176.921 11.5612 177.401 12.2012C177.908 12.8146 178.161 13.5479 178.161 14.4012C178.161 15.7612 177.934 17.1612 177.481 18.6012C177.028 20.0412 176.428 21.4146 175.681 22.7212C174.961 24.0279 174.174 25.1612 173.321 26.1212C173.134 26.3079 172.841 26.5612 172.441 26.8812C172.068 27.1746 171.628 27.4679 171.121 27.7612C170.614 28.0546 170.108 28.3079 169.601 28.5213C169.121 28.7346 168.708 28.8413 168.361 28.8413C168.121 28.8413 167.854 28.7479 167.561 28.5613C167.268 28.4013 167.014 28.1879 166.801 27.9212C166.588 27.6546 166.481 27.4279 166.481 27.2412C166.481 27.1079 166.534 26.9346 166.641 26.7212C166.774 26.4812 166.934 26.2679 167.121 26.0812C167.308 25.8946 167.494 25.8012 167.681 25.8012C167.921 25.8012 168.121 25.8546 168.281 25.9612C168.468 26.0679 168.628 26.2012 168.761 26.3612C168.948 26.5212 169.121 26.6679 169.281 26.8012C169.468 26.9079 169.681 26.9613 169.921 26.9613C170.294 26.9613 170.694 26.6946 171.121 26.1612C171.574 25.6279 172.001 24.9212 172.401 24.0412C172.828 23.1612 173.201 22.2012 173.521 21.1612C173.841 20.1212 174.094 19.0946 174.281 18.0812C174.468 17.0412 174.561 16.1079 174.561 15.2812C174.561 14.7212 174.454 14.2946 174.241 14.0012C174.028 13.6812 173.694 13.5212 173.241 13.5212C172.708 13.5212 172.108 13.8012 171.441 14.3612C170.801 14.9212 170.108 15.6679 169.361 16.6012C168.641 17.5346 167.908 18.5479 167.161 19.6412C166.441 20.7346 165.761 21.8146 165.121 22.8812C164.481 23.9212 163.934 24.8412 163.481 25.6413C162.868 26.7612 162.374 27.6012 162.001 28.1612C161.654 28.6946 161.308 28.9613 160.961 28.9613Z" fill="#E60012"/>
<path d="M7.40375 66.8813C6.25708 66.8813 5.16375 66.7346 4.12375 66.4413C3.11042 66.1479 2.17708 65.7079 1.32375 65.1212C1.16375 64.9879 1.01708 64.8546 0.88375 64.7212C0.750417 64.5612 0.64375 64.3879 0.56375 64.2012C0.350417 63.5346 0.20375 62.7212 0.12375 61.7612C0.04375 60.7746 0.0170834 59.8279 0.04375 58.9212C0.04375 58.7346 0.110417 58.6012 0.24375 58.5212C0.40375 58.4412 0.590417 58.4012 0.80375 58.4012C1.01708 58.4012 1.17708 58.4412 1.28375 58.5212C1.41708 58.5746 1.51042 58.6946 1.56375 58.8812C2.15042 60.8812 3.00375 62.4412 4.12375 63.5612C5.24375 64.6812 6.51042 65.2412 7.92375 65.2412C8.80375 65.2412 9.55042 65.0412 10.1638 64.6412C10.7771 64.2412 11.2438 63.7212 11.5638 63.0812C11.8838 62.4412 12.0438 61.7479 12.0438 61.0013C12.0438 60.0679 11.8704 59.2946 11.5238 58.6812C11.2038 58.0679 10.7104 57.5212 10.0438 57.0412C9.37708 56.5346 8.53708 56.0012 7.52375 55.4412C6.43042 54.8012 5.36375 54.1346 4.32375 53.4412C3.28375 52.7212 2.43042 51.8812 1.76375 50.9212C1.09708 49.9346 0.76375 48.7212 0.76375 47.2812C0.76375 45.7879 1.13708 44.4812 1.88375 43.3612C2.65708 42.2146 3.72375 41.3212 5.08375 40.6812C6.44375 40.0412 8.01708 39.7212 9.80375 39.7212C10.7904 39.7212 11.7104 39.8279 12.5638 40.0412C13.4171 40.2546 14.0971 40.4679 14.6038 40.6812C14.8971 40.7879 15.1104 40.9212 15.2438 41.0812C15.4038 41.2412 15.5238 41.4946 15.6038 41.8412C15.7638 42.4012 15.8971 43.0679 16.0038 43.8412C16.1371 44.6146 16.2038 45.4279 16.2038 46.2812C16.2038 46.6012 15.9638 46.7612 15.4838 46.7612C15.2704 46.7612 15.0571 46.7079 14.8438 46.6012C14.6304 46.4946 14.4971 46.3479 14.4438 46.1612C13.9638 44.6146 13.2971 43.4412 12.4438 42.6412C11.6171 41.8412 10.5904 41.4412 9.36375 41.4412C8.53708 41.4412 7.83042 41.5879 7.24375 41.8812C6.65708 42.1479 6.19042 42.5746 5.84375 43.1612C5.49708 43.7212 5.32375 44.4546 5.32375 45.3612C5.32375 46.0546 5.55042 46.6946 6.00375 47.2812C6.48375 47.8679 7.13708 48.4412 7.96375 49.0012C8.81708 49.5612 9.76375 50.1746 10.8038 50.8412C12.0838 51.5879 13.1504 52.3479 14.0038 53.1212C14.8838 53.8679 15.5504 54.7079 16.0038 55.6412C16.4571 56.5479 16.6838 57.6279 16.6838 58.8812C16.6838 60.6412 16.2971 62.1212 15.5238 63.3212C14.7504 64.4946 13.6704 65.3879 12.2838 66.0012C10.8971 66.5879 9.27042 66.8813 7.40375 66.8813ZM27.9713 66.8413C26.3979 66.8413 24.9846 66.4946 23.7313 65.8012C22.4779 65.0812 21.4779 64.0946 20.7313 62.8412C19.9846 61.5879 19.6113 60.1746 19.6113 58.6012C19.6113 57.3746 19.8513 56.2012 20.3313 55.0812C20.8113 53.9612 21.4646 52.9612 22.2913 52.0812C23.1179 51.2012 24.0913 50.5079 25.2113 50.0012C26.3313 49.4679 27.5313 49.2012 28.8112 49.2012C30.4379 49.2012 31.8913 49.5879 33.1713 50.3612C34.4779 51.1079 35.5179 52.1079 36.2913 53.3612C37.0646 54.6146 37.4513 55.9879 37.4513 57.4812C37.4513 59.1346 37.0913 60.6812 36.3713 62.1212C35.6779 63.5346 34.6246 64.6812 33.2113 65.5612C31.8246 66.4146 30.0779 66.8413 27.9713 66.8413ZM28.7713 65.2812C29.4379 65.2812 30.0246 65.1479 30.5313 64.8812C31.0646 64.6146 31.4913 64.2012 31.8113 63.6413C32.1313 63.0812 32.3446 62.3479 32.4513 61.4412C32.5846 60.5079 32.6513 59.5079 32.6513 58.4412C32.6513 57.0279 32.4646 55.7479 32.0913 54.6012C31.7179 53.4546 31.1979 52.5346 30.5313 51.8412C29.8646 51.1479 29.0779 50.8012 28.1713 50.8012C27.6646 50.8012 27.1979 50.8946 26.7713 51.0812C26.3713 51.2412 25.9979 51.5212 25.6513 51.9212C25.1713 52.4812 24.8379 53.2546 24.6513 54.2412C24.4913 55.2012 24.4112 56.3212 24.4112 57.6012C24.4112 58.8812 24.5979 60.1079 24.9713 61.2812C25.3713 62.4546 25.8913 63.4146 26.5313 64.1612C27.1979 64.9079 27.9446 65.2812 28.7713 65.2812ZM39.4253 66.4013C39.212 66.4013 39.0253 66.3613 38.8653 66.2812C38.7053 66.2012 38.6253 66.0812 38.6253 65.9212C38.6253 65.7079 38.7053 65.5479 38.8653 65.4412C39.052 65.3346 39.2786 65.2279 39.5453 65.1212C39.9453 64.9879 40.3053 64.8412 40.6253 64.6812C40.972 64.5212 41.1453 64.1612 41.1453 63.6012V44.0812C41.1453 43.3346 41.0253 42.7079 40.7853 42.2012C40.572 41.6679 40.132 41.3346 39.4653 41.2012C39.1986 41.1479 39.0653 40.9479 39.0653 40.6012C39.0653 40.2812 39.1853 40.0946 39.4253 40.0412C40.092 39.9079 40.772 39.7212 41.4653 39.4812C42.1853 39.2412 42.852 39.0012 43.4653 38.7612C44.1053 38.5212 44.6386 38.3346 45.0653 38.2012C45.252 38.1212 45.3853 38.0812 45.4653 38.0812C45.5986 38.0812 45.692 38.1346 45.7453 38.2412C45.7986 38.3212 45.8253 38.4012 45.8253 38.4812C45.8253 38.6946 45.7853 39.1079 45.7053 39.7212C45.6253 40.3079 45.5853 41.1079 45.5853 42.1212V63.5612C45.5853 64.1212 45.7453 64.4812 46.0653 64.6412C46.3853 64.8012 46.7453 64.9479 47.1453 65.0812C47.412 65.1879 47.6253 65.2946 47.7853 65.4012C47.972 65.5079 48.0653 65.6679 48.0653 65.8812C48.0653 66.0412 47.9853 66.1612 47.8253 66.2412C47.6653 66.3213 47.4786 66.3613 47.2653 66.3613C46.7586 66.3613 46.292 66.3346 45.8653 66.2812C45.4386 66.2546 45.012 66.2412 44.5853 66.2412C44.1853 66.2146 43.7453 66.2012 43.2653 66.2012C42.812 66.2012 42.3853 66.2146 41.9853 66.2412C41.612 66.2679 41.2253 66.2946 40.8253 66.3213C40.4253 66.3746 39.9586 66.4013 39.4253 66.4013ZM62.6513 67.0813C62.4379 67.0813 62.3313 66.9613 62.3313 66.7213C62.3313 66.4279 62.3579 66.0146 62.4113 65.4812C62.4913 64.9479 62.5313 64.5212 62.5313 64.2012C62.5313 64.1212 62.5179 64.0546 62.4913 64.0012C62.4913 63.9212 62.4913 63.8679 62.4913 63.8412C61.6646 64.7479 60.6913 65.4812 59.5713 66.0412C58.4779 66.6013 57.3179 66.8813 56.0913 66.8813C55.2379 66.8813 54.4646 66.6546 53.7713 66.2012C53.1046 65.7479 52.5713 65.1212 52.1713 64.3212C51.7979 63.5212 51.6113 62.5879 51.6113 61.5212V53.8412C51.6113 53.2279 51.4913 52.7479 51.2513 52.4012C51.0113 52.0279 50.5846 51.7479 49.9713 51.5612C49.8113 51.5346 49.6646 51.4679 49.5313 51.3612C49.4246 51.2546 49.3713 51.0946 49.3713 50.8812C49.3713 50.6679 49.4246 50.5079 49.5313 50.4012C49.6646 50.2946 49.8113 50.2279 49.9713 50.2012C51.0379 50.1479 51.9579 50.0546 52.7313 49.9212C53.5046 49.7612 54.3313 49.5746 55.2113 49.3612C55.3179 49.3079 55.4246 49.2679 55.5313 49.2412C55.6379 49.2146 55.7446 49.2012 55.8513 49.2012C56.1979 49.2012 56.3579 49.3879 56.3313 49.7612C56.2513 50.3746 56.1846 50.8946 56.1313 51.3212C56.0779 51.7212 56.0513 52.2279 56.0513 52.8412V60.5612C56.0513 61.2012 56.1713 61.7746 56.4113 62.2812C56.6513 62.7879 56.9846 63.1879 57.4113 63.4812C57.8379 63.7746 58.3046 63.9346 58.8112 63.9612C59.3179 63.9612 59.7846 63.9079 60.2113 63.8012C60.6646 63.6946 61.1046 63.4546 61.5313 63.0812C61.7446 62.9212 61.9846 62.6279 62.2513 62.2012C62.5179 61.7479 62.6513 61.1612 62.6513 60.4412V53.7212C62.6513 53.2146 62.5313 52.8146 62.2913 52.5212C62.0779 52.2012 61.7846 51.9612 61.4113 51.8012C61.0646 51.6412 60.7046 51.5612 60.3313 51.5612C60.0379 51.5346 59.8113 51.4679 59.6513 51.3612C59.4913 51.2546 59.4113 51.0412 59.4113 50.7212C59.4113 50.4546 59.5046 50.2679 59.6913 50.1612C59.8779 50.0546 60.0913 50.0012 60.3313 50.0012C61.5046 49.9212 62.4513 49.8546 63.1713 49.8012C63.8913 49.7479 64.4913 49.6812 64.9713 49.6012C65.4779 49.5212 65.9713 49.4146 66.4513 49.2812C66.5313 49.2546 66.6113 49.2412 66.6913 49.2412C66.7979 49.2146 66.8779 49.2012 66.9313 49.2012C67.3046 49.2012 67.4913 49.3479 67.4913 49.6412C67.4913 49.7212 67.4779 49.8146 67.4513 49.9212C67.4513 50.0012 67.4246 50.0946 67.3713 50.2012C67.3446 50.2812 67.3046 50.5079 67.2513 50.8812C67.2246 51.2546 67.1846 51.6412 67.1313 52.0412C67.1046 52.4412 67.0913 52.7479 67.0913 52.9612V62.2412C67.0913 62.8812 67.1579 63.3212 67.2913 63.5612C67.4513 63.8012 67.6246 63.9212 67.8113 63.9212C67.9713 63.9212 68.1979 63.9212 68.4913 63.9212C68.8113 63.8946 69.0379 63.8812 69.1713 63.8812C69.3846 63.8812 69.5579 63.9346 69.6913 64.0412C69.8246 64.1479 69.8913 64.3212 69.8913 64.5612C69.8913 64.8012 69.8379 64.9879 69.7313 65.1212C69.6513 65.2279 69.4913 65.2946 69.2513 65.3212C68.0513 65.4279 66.9846 65.6412 66.0513 65.9612C65.1179 66.2546 64.3046 66.5479 63.6113 66.8413C63.4513 66.8946 63.2779 66.9479 63.0913 67.0013C62.9313 67.0546 62.7846 67.0813 62.6513 67.0813ZM78.61 66.8413C77.01 66.8413 75.7967 66.4146 74.97 65.5612C74.1433 64.7079 73.73 63.4679 73.73 61.8412V52.6012C73.73 52.3879 73.6367 52.2279 73.45 52.1212C73.29 52.0146 72.9567 51.9479 72.45 51.9212H72.01C71.85 51.9212 71.7167 51.8012 71.61 51.5612C71.5033 51.2946 71.45 51.0412 71.45 50.8012C71.45 50.7479 71.4633 50.6812 71.49 50.6012C71.5433 50.4946 71.61 50.4279 71.69 50.4012C72.3033 50.1346 72.93 49.7746 73.57 49.3212C74.21 48.8412 74.81 48.3612 75.37 47.8812C75.93 47.3746 76.3967 46.9479 76.77 46.6012C76.9567 46.4679 77.1033 46.3479 77.21 46.2412C77.3433 46.1346 77.49 46.0813 77.65 46.0813C77.8633 46.0813 78.0233 46.1346 78.13 46.2412C78.2633 46.3212 78.3033 46.4946 78.25 46.7612L78.01 48.9612C77.9833 49.2812 78.05 49.4946 78.21 49.6012C78.3967 49.7079 78.65 49.7612 78.97 49.7612H83.69C83.77 49.7612 83.85 49.8546 83.93 50.0412C84.01 50.2279 84.05 50.4146 84.05 50.6012C84.05 50.9479 83.9967 51.2679 83.89 51.5612C83.81 51.8546 83.7033 52.0012 83.57 52.0012H79.77C79.1567 52.0012 78.73 52.0679 78.49 52.2012C78.2767 52.3346 78.17 52.6146 78.17 53.0412V60.7212C78.17 61.8946 78.3967 62.7879 78.85 63.4012C79.3033 63.9879 79.9433 64.2812 80.77 64.2812C81.5167 64.2812 82.0767 64.2146 82.45 64.0812C82.85 63.9479 83.21 63.7879 83.53 63.6012C83.61 63.5479 83.6767 63.5212 83.73 63.5212C83.8633 63.5212 83.9567 63.6012 84.01 63.7612C84.09 63.9212 84.13 64.0946 84.13 64.2812C84.13 64.4146 83.8633 64.6946 83.33 65.1212C82.8233 65.5479 82.1433 65.9346 81.29 66.2812C80.4633 66.6546 79.57 66.8413 78.61 66.8413ZM86.0688 66.4013C85.8554 66.4013 85.6821 66.3613 85.5488 66.2812C85.4154 66.1746 85.3488 66.0412 85.3488 65.8812C85.3488 65.6679 85.4288 65.5079 85.5888 65.4012C85.7488 65.2946 85.9354 65.2146 86.1488 65.1612C86.7888 65.0012 87.2421 64.8279 87.5088 64.6412C87.8021 64.4546 87.9488 64.1346 87.9488 63.6812V55.0012C87.9488 54.1479 87.8154 53.5079 87.5488 53.0812C87.2821 52.6546 86.8288 52.3879 86.1888 52.2812C86.0554 52.2546 85.9488 52.1879 85.8688 52.0812C85.7888 51.9479 85.7488 51.8012 85.7488 51.6412C85.7488 51.2679 85.8954 51.0679 86.1888 51.0412C87.4688 50.7746 88.5754 50.4146 89.5088 49.9612C90.4688 49.4812 91.2021 49.1079 91.7088 48.8412C92.0821 48.6546 92.3221 48.5612 92.4288 48.5612C92.7221 48.5612 92.8688 48.6946 92.8688 48.9612C92.8421 49.3346 92.7888 49.8546 92.7088 50.5212C92.6288 51.1612 92.5488 51.8546 92.4688 52.6012C92.4154 53.3212 92.3888 54.0012 92.3888 54.6412V63.6413C92.3888 64.0412 92.5354 64.3479 92.8288 64.5612C93.1221 64.7746 93.5888 64.9746 94.2288 65.1612C94.4421 65.2412 94.6288 65.3346 94.7888 65.4412C94.9488 65.5212 95.0287 65.6679 95.0287 65.8812C95.0287 66.2012 94.8021 66.3613 94.3488 66.3613C93.8421 66.3613 93.3488 66.3479 92.8688 66.3213C92.4154 66.2946 91.9621 66.2679 91.5088 66.2412C91.0821 66.2146 90.6288 66.2012 90.1488 66.2012C89.6954 66.2012 89.2554 66.2146 88.8288 66.2412C88.4021 66.2679 87.9621 66.2946 87.5088 66.3213C87.0821 66.3746 86.6021 66.4013 86.0688 66.4013ZM90.0688 46.2412C89.2954 46.2412 88.6421 45.9746 88.1088 45.4412C87.5754 44.9079 87.3088 44.2679 87.3088 43.5212C87.3088 42.6946 87.5754 42.0146 88.1088 41.4812C88.6421 40.9479 89.2954 40.6812 90.0688 40.6812C90.8688 40.6812 91.5354 40.9479 92.0688 41.4812C92.6021 42.0146 92.8688 42.6946 92.8688 43.5212C92.8688 44.2679 92.6021 44.9079 92.0688 45.4412C91.5354 45.9746 90.8688 46.2412 90.0688 46.2412ZM105.081 66.8413C103.507 66.8413 102.094 66.4946 100.841 65.8012C99.5873 65.0812 98.5873 64.0946 97.8406 62.8412C97.094 61.5879 96.7206 60.1746 96.7206 58.6012C96.7206 57.3746 96.9606 56.2012 97.4406 55.0812C97.9206 53.9612 98.574 52.9612 99.4006 52.0812C100.227 51.2012 101.201 50.5079 102.321 50.0012C103.441 49.4679 104.641 49.2012 105.921 49.2012C107.547 49.2012 109.001 49.5879 110.281 50.3612C111.587 51.1079 112.627 52.1079 113.401 53.3612C114.174 54.6146 114.561 55.9879 114.561 57.4812C114.561 59.1346 114.201 60.6812 113.481 62.1212C112.787 63.5346 111.734 64.6812 110.321 65.5612C108.934 66.4146 107.187 66.8413 105.081 66.8413ZM105.881 65.2812C106.547 65.2812 107.134 65.1479 107.641 64.8812C108.174 64.6146 108.601 64.2012 108.921 63.6413C109.241 63.0812 109.454 62.3479 109.561 61.4412C109.694 60.5079 109.761 59.5079 109.761 58.4412C109.761 57.0279 109.574 55.7479 109.201 54.6012C108.827 53.4546 108.307 52.5346 107.641 51.8412C106.974 51.1479 106.187 50.8012 105.281 50.8012C104.774 50.8012 104.307 50.8946 103.881 51.0812C103.481 51.2412 103.107 51.5212 102.761 51.9212C102.281 52.4812 101.947 53.2546 101.761 54.2412C101.601 55.2012 101.521 56.3212 101.521 57.6012C101.521 58.8812 101.707 60.1079 102.081 61.2812C102.481 62.4546 103.001 63.4146 103.641 64.1612C104.307 64.9079 105.054 65.2812 105.881 65.2812ZM117.321 66.4013C117.107 66.4013 116.921 66.3613 116.761 66.2812C116.601 66.1746 116.521 66.0412 116.521 65.8812C116.521 65.6679 116.601 65.5079 116.761 65.4012C116.947 65.2946 117.174 65.2012 117.441 65.1212C117.841 65.0146 118.201 64.8679 118.521 64.6812C118.867 64.4946 119.041 64.1346 119.041 63.6012V54.6412C119.041 54.0279 118.947 53.5079 118.761 53.0812C118.601 52.6279 118.241 52.3346 117.681 52.2012C117.574 52.1479 117.481 52.0812 117.401 52.0012C117.321 51.8946 117.281 51.7346 117.281 51.5212C117.281 51.1746 117.401 50.9746 117.641 50.9212C118.574 50.7079 119.494 50.4279 120.401 50.0812C121.334 49.7079 122.147 49.3212 122.841 48.9212C122.947 48.8679 123.054 48.8012 123.161 48.7212C123.267 48.6412 123.374 48.6012 123.481 48.6012C123.614 48.6012 123.694 48.6546 123.721 48.7612C123.774 48.8412 123.801 48.9346 123.801 49.0412C123.801 49.2279 123.761 49.5746 123.681 50.0812C123.627 50.5879 123.601 51.0279 123.601 51.4012C123.601 51.5079 123.601 51.6279 123.601 51.7612C123.627 51.8679 123.654 51.9346 123.681 51.9612C124.587 51.1079 125.521 50.4412 126.481 49.9612C127.467 49.4812 128.574 49.2412 129.801 49.2412C131.161 49.2412 132.294 49.7612 133.201 50.8012C134.134 51.8412 134.601 53.2146 134.601 54.9212V63.6413C134.601 64.1746 134.761 64.5212 135.081 64.6812C135.401 64.8412 135.761 64.9879 136.161 65.1212C136.374 65.2012 136.574 65.3079 136.761 65.4412C136.947 65.5479 137.041 65.7079 137.041 65.9212C137.041 66.0812 136.947 66.2012 136.761 66.2812C136.601 66.3613 136.441 66.4013 136.281 66.4013C135.747 66.4013 135.281 66.3746 134.881 66.3213C134.481 66.2946 134.081 66.2679 133.681 66.2412C133.307 66.2146 132.881 66.2012 132.401 66.2012C131.947 66.2012 131.521 66.2146 131.121 66.2412C130.721 66.2679 130.307 66.2946 129.881 66.3213C129.481 66.3746 129.014 66.4013 128.481 66.4013C128.347 66.4013 128.201 66.3613 128.041 66.2812C127.881 66.2012 127.801 66.0812 127.801 65.9212C127.801 65.7079 127.881 65.5479 128.041 65.4412C128.201 65.3079 128.387 65.2012 128.601 65.1212C129.001 64.9879 129.347 64.8412 129.641 64.6812C129.961 64.5212 130.121 64.1746 130.121 63.6413V55.5212C130.121 54.4546 129.854 53.6146 129.321 53.0012C128.814 52.3879 128.121 52.0812 127.241 52.0812C126.521 52.0812 125.894 52.1879 125.361 52.4012C124.827 52.6146 124.307 52.9212 123.801 53.3212C123.694 53.4012 123.614 53.5212 123.561 53.6812C123.507 53.8146 123.481 53.9612 123.481 54.1212V63.6413C123.481 64.1746 123.627 64.5346 123.921 64.7212C124.241 64.8812 124.601 65.0146 125.001 65.1212C125.561 65.3079 125.841 65.5612 125.841 65.8812C125.841 66.0412 125.774 66.1746 125.641 66.2812C125.507 66.3613 125.334 66.4013 125.121 66.4013C124.587 66.4013 124.121 66.3746 123.721 66.3213C123.321 66.2946 122.934 66.2679 122.561 66.2412C122.187 66.2146 121.761 66.2012 121.281 66.2012C120.827 66.2012 120.401 66.2146 120.001 66.2412C119.601 66.2679 119.187 66.2946 118.761 66.3213C118.334 66.3746 117.854 66.4013 117.321 66.4013ZM162.934 66.8413C160.934 66.8413 159.041 66.5346 157.254 65.9212C155.468 65.2812 153.881 64.3746 152.494 63.2012C151.134 62.0279 150.054 60.6279 149.254 59.0012C148.481 57.3479 148.094 55.5212 148.094 53.5212C148.094 51.6546 148.481 49.8946 149.254 48.2412C150.028 46.5879 151.121 45.1212 152.534 43.8412C153.948 42.5612 155.628 41.5612 157.574 40.8412C159.548 40.0946 161.708 39.7212 164.054 39.7212C164.961 39.7212 165.814 39.7879 166.614 39.9212C167.441 40.0279 168.241 40.1746 169.014 40.3612C169.788 40.5212 170.548 40.7346 171.294 41.0012C171.588 41.1079 171.814 41.2546 171.974 41.4412C172.161 41.6279 172.268 41.8812 172.294 42.2012C172.401 43.0012 172.481 43.8012 172.534 44.6012C172.588 45.3746 172.614 46.1479 172.614 46.9212C172.641 47.1879 172.548 47.3879 172.334 47.5212C172.121 47.6279 171.894 47.6412 171.654 47.5612C171.414 47.4546 171.241 47.2546 171.134 46.9612C170.921 46.2146 170.668 45.5212 170.374 44.8812C170.108 44.2146 169.694 43.6546 169.134 43.2012C168.521 42.6946 167.748 42.2946 166.814 42.0012C165.881 41.6812 164.788 41.5212 163.534 41.5212C162.094 41.5212 160.788 41.8146 159.614 42.4012C158.441 42.9879 157.428 43.8012 156.574 44.8412C155.748 45.8812 155.108 47.0546 154.654 48.3612C154.201 49.6679 153.974 51.0412 153.974 52.4812C153.974 54.1879 154.174 55.8012 154.574 57.3212C155.001 58.8412 155.628 60.1879 156.454 61.3612C157.308 62.5079 158.334 63.4146 159.534 64.0812C160.734 64.7212 162.108 65.0412 163.654 65.0412C165.628 65.0412 167.228 64.6146 168.454 63.7612C169.681 62.9079 170.721 61.6412 171.574 59.9612C171.788 59.5346 172.081 59.3346 172.454 59.3612C172.828 59.3612 173.014 59.5746 173.014 60.0012C173.014 60.3212 172.974 60.7212 172.894 61.2012C172.814 61.6812 172.694 62.2012 172.534 62.7612C172.401 63.2946 172.241 63.8279 172.054 64.3612C171.948 64.6812 171.814 64.9212 171.654 65.0812C171.494 65.2412 171.254 65.3879 170.934 65.5212C169.921 65.9479 168.721 66.2679 167.334 66.4813C165.974 66.7213 164.508 66.8413 162.934 66.8413ZM183.574 66.8413C182.107 66.8413 180.814 66.4679 179.694 65.7212C178.574 64.9746 177.694 63.9479 177.054 62.6412C176.414 61.3079 176.094 59.8012 176.094 58.1212C176.094 56.4946 176.467 55.0146 177.214 53.6812C177.987 52.3212 179.014 51.2412 180.294 50.4412C181.574 49.6412 182.974 49.2412 184.494 49.2412C185.614 49.2412 186.614 49.4812 187.494 49.9612C188.374 50.4146 189.067 51.0546 189.574 51.8812C190.107 52.6812 190.374 53.5879 190.374 54.6012C190.374 55.5612 189.96 56.0412 189.134 56.0412H181.014C180.64 56.0412 180.36 56.1479 180.174 56.3612C180.014 56.5479 179.934 56.9079 179.934 57.4412C179.934 58.5612 180.174 59.5746 180.654 60.4812C181.16 61.3879 181.827 62.1079 182.654 62.6412C183.48 63.1746 184.427 63.4412 185.494 63.4412C186.267 63.4412 186.974 63.2946 187.614 63.0012C188.28 62.6812 188.907 62.2546 189.494 61.7212C189.6 61.6412 189.694 61.5746 189.774 61.5212C189.854 61.4412 189.934 61.4012 190.014 61.4012C190.28 61.4012 190.414 61.5612 190.414 61.8812C190.414 62.2546 190.254 62.7079 189.934 63.2412C189.614 63.8546 189.147 64.4412 188.534 65.0012C187.947 65.5612 187.227 66.0012 186.374 66.3213C185.52 66.6679 184.587 66.8413 183.574 66.8413ZM181.014 54.4812H183.854C184.547 54.4812 185.067 54.4679 185.414 54.4412C185.76 54.4146 186.094 54.3612 186.414 54.2812C186.547 54.2546 186.64 54.1479 186.694 53.9612C186.747 53.7479 186.774 53.5079 186.774 53.2412C186.774 52.5212 186.494 51.9212 185.934 51.4412C185.4 50.9346 184.734 50.6812 183.934 50.6812C183.374 50.6812 182.827 50.8546 182.294 51.2012C181.76 51.5212 181.32 51.9346 180.974 52.4412C180.627 52.9479 180.467 53.4679 180.494 54.0012C180.494 54.3212 180.667 54.4812 181.014 54.4812ZM193.102 66.4013C192.889 66.4013 192.702 66.3613 192.542 66.2812C192.382 66.1746 192.302 66.0412 192.302 65.8812C192.302 65.6679 192.382 65.5079 192.542 65.4012C192.729 65.2946 192.955 65.2012 193.222 65.1212C193.622 65.0146 193.982 64.8679 194.302 64.6812C194.649 64.4946 194.822 64.1346 194.822 63.6012V54.6412C194.822 54.0279 194.729 53.5079 194.542 53.0812C194.382 52.6279 194.022 52.3346 193.462 52.2012C193.355 52.1479 193.262 52.0812 193.182 52.0012C193.102 51.8946 193.062 51.7346 193.062 51.5212C193.062 51.1746 193.182 50.9746 193.422 50.9212C194.355 50.7079 195.275 50.4279 196.182 50.0812C197.115 49.7079 197.929 49.3212 198.622 48.9212C198.729 48.8679 198.835 48.8012 198.942 48.7212C199.049 48.6412 199.155 48.6012 199.262 48.6012C199.395 48.6012 199.475 48.6546 199.502 48.7612C199.555 48.8412 199.582 48.9346 199.582 49.0412C199.582 49.2279 199.542 49.5746 199.462 50.0812C199.409 50.5879 199.382 51.0279 199.382 51.4012C199.382 51.5079 199.382 51.6279 199.382 51.7612C199.409 51.8679 199.435 51.9346 199.462 51.9612C200.369 51.1079 201.302 50.4412 202.262 49.9612C203.249 49.4812 204.355 49.2412 205.582 49.2412C206.942 49.2412 208.075 49.7612 208.982 50.8012C209.915 51.8412 210.382 53.2146 210.382 54.9212V63.6413C210.382 64.1746 210.542 64.5212 210.862 64.6812C211.182 64.8412 211.542 64.9879 211.942 65.1212C212.155 65.2012 212.355 65.3079 212.542 65.4412C212.729 65.5479 212.822 65.7079 212.822 65.9212C212.822 66.0812 212.729 66.2012 212.542 66.2812C212.382 66.3613 212.222 66.4013 212.062 66.4013C211.529 66.4013 211.062 66.3746 210.662 66.3213C210.262 66.2946 209.862 66.2679 209.462 66.2412C209.089 66.2146 208.662 66.2012 208.182 66.2012C207.729 66.2012 207.302 66.2146 206.902 66.2412C206.502 66.2679 206.089 66.2946 205.662 66.3213C205.262 66.3746 204.795 66.4013 204.262 66.4013C204.129 66.4013 203.982 66.3613 203.822 66.2812C203.662 66.2012 203.582 66.0812 203.582 65.9212C203.582 65.7079 203.662 65.5479 203.822 65.4412C203.982 65.3079 204.169 65.2012 204.382 65.1212C204.782 64.9879 205.129 64.8412 205.422 64.6812C205.742 64.5212 205.902 64.1746 205.902 63.6413V55.5212C205.902 54.4546 205.635 53.6146 205.102 53.0012C204.595 52.3879 203.902 52.0812 203.022 52.0812C202.302 52.0812 201.675 52.1879 201.142 52.4012C200.609 52.6146 200.089 52.9212 199.582 53.3212C199.475 53.4012 199.395 53.5212 199.342 53.6812C199.289 53.8146 199.262 53.9612 199.262 54.1212V63.6413C199.262 64.1746 199.409 64.5346 199.702 64.7212C200.022 64.8812 200.382 65.0146 200.782 65.1212C201.342 65.3079 201.622 65.5612 201.622 65.8812C201.622 66.0412 201.555 66.1746 201.422 66.2812C201.289 66.3613 201.115 66.4013 200.902 66.4013C200.369 66.4013 199.902 66.3746 199.502 66.3213C199.102 66.2946 198.715 66.2679 198.342 66.2412C197.969 66.2146 197.542 66.2012 197.062 66.2012C196.609 66.2012 196.182 66.2146 195.782 66.2412C195.382 66.2679 194.969 66.2946 194.542 66.3213C194.115 66.3746 193.635 66.4013 193.102 66.4013ZM221.462 66.8413C219.862 66.8413 218.648 66.4146 217.822 65.5612C216.995 64.7079 216.582 63.4679 216.582 61.8412V52.6012C216.582 52.3879 216.488 52.2279 216.302 52.1212C216.142 52.0146 215.808 51.9479 215.302 51.9212H214.862C214.702 51.9212 214.568 51.8012 214.462 51.5612C214.355 51.2946 214.302 51.0412 214.302 50.8012C214.302 50.7479 214.315 50.6812 214.342 50.6012C214.395 50.4946 214.462 50.4279 214.542 50.4012C215.155 50.1346 215.782 49.7746 216.422 49.3212C217.062 48.8412 217.662 48.3612 218.222 47.8812C218.782 47.3746 219.248 46.9479 219.622 46.6012C219.808 46.4679 219.955 46.3479 220.062 46.2412C220.195 46.1346 220.342 46.0813 220.502 46.0813C220.715 46.0813 220.875 46.1346 220.982 46.2412C221.115 46.3212 221.155 46.4946 221.102 46.7612L220.862 48.9612C220.835 49.2812 220.902 49.4946 221.062 49.6012C221.248 49.7079 221.502 49.7612 221.822 49.7612H226.542C226.622 49.7612 226.702 49.8546 226.782 50.0412C226.862 50.2279 226.902 50.4146 226.902 50.6012C226.902 50.9479 226.848 51.2679 226.742 51.5612C226.662 51.8546 226.555 52.0012 226.422 52.0012H222.622C222.008 52.0012 221.582 52.0679 221.342 52.2012C221.128 52.3346 221.022 52.6146 221.022 53.0412V60.7212C221.022 61.8946 221.248 62.7879 221.702 63.4012C222.155 63.9879 222.795 64.2812 223.622 64.2812C224.368 64.2812 224.928 64.2146 225.302 64.0812C225.702 63.9479 226.062 63.7879 226.382 63.6012C226.462 63.5479 226.528 63.5212 226.582 63.5212C226.715 63.5212 226.808 63.6012 226.862 63.7612C226.942 63.9212 226.982 64.0946 226.982 64.2812C226.982 64.4146 226.715 64.6946 226.182 65.1212C225.675 65.5479 224.995 65.9346 224.142 66.2812C223.315 66.6546 222.422 66.8413 221.462 66.8413ZM235.8 66.8413C234.334 66.8413 233.04 66.4679 231.92 65.7212C230.8 64.9746 229.92 63.9479 229.28 62.6412C228.64 61.3079 228.32 59.8012 228.32 58.1212C228.32 56.4946 228.694 55.0146 229.44 53.6812C230.214 52.3212 231.24 51.2412 232.52 50.4412C233.8 49.6412 235.2 49.2412 236.72 49.2412C237.84 49.2412 238.84 49.4812 239.72 49.9612C240.6 50.4146 241.294 51.0546 241.8 51.8812C242.334 52.6812 242.6 53.5879 242.6 54.6012C242.6 55.5612 242.187 56.0412 241.36 56.0412H233.24C232.867 56.0412 232.587 56.1479 232.4 56.3612C232.24 56.5479 232.16 56.9079 232.16 57.4412C232.16 58.5612 232.4 59.5746 232.88 60.4812C233.387 61.3879 234.054 62.1079 234.88 62.6412C235.707 63.1746 236.654 63.4412 237.72 63.4412C238.494 63.4412 239.2 63.2946 239.84 63.0012C240.507 62.6812 241.134 62.2546 241.72 61.7212C241.827 61.6412 241.92 61.5746 242 61.5212C242.08 61.4412 242.16 61.4012 242.24 61.4012C242.507 61.4012 242.64 61.5612 242.64 61.8812C242.64 62.2546 242.48 62.7079 242.16 63.2412C241.84 63.8546 241.374 64.4412 240.76 65.0012C240.174 65.5612 239.454 66.0012 238.6 66.3213C237.747 66.6679 236.814 66.8413 235.8 66.8413ZM233.24 54.4812H236.08C236.774 54.4812 237.294 54.4679 237.64 54.4412C237.987 54.4146 238.32 54.3612 238.64 54.2812C238.774 54.2546 238.867 54.1479 238.92 53.9612C238.974 53.7479 239 53.5079 239 53.2412C239 52.5212 238.72 51.9212 238.16 51.4412C237.627 50.9346 236.96 50.6812 236.16 50.6812C235.6 50.6812 235.054 50.8546 234.52 51.2012C233.987 51.5212 233.547 51.9346 233.2 52.4412C232.854 52.9479 232.694 53.4679 232.72 54.0012C232.72 54.3212 232.894 54.4812 233.24 54.4812ZM245.408 66.4013C245.195 66.4013 245.008 66.3613 244.848 66.2812C244.688 66.1746 244.608 66.0412 244.608 65.8812C244.608 65.6679 244.688 65.5079 244.848 65.4012C245.035 65.2946 245.262 65.2012 245.528 65.1212C246.088 64.9612 246.475 64.7746 246.688 64.5612C246.928 64.3212 247.048 64.0012 247.048 63.6012V54.6012C247.048 53.9879 246.955 53.4812 246.768 53.0812C246.608 52.6546 246.248 52.3746 245.688 52.2412C245.582 52.1879 245.475 52.1212 245.368 52.0412C245.262 51.9346 245.208 51.7879 245.208 51.6012C245.208 51.2546 245.355 51.0412 245.648 50.9612C246.448 50.7479 247.315 50.4679 248.248 50.1212C249.182 49.7479 249.968 49.3879 250.608 49.0412C250.742 48.9612 250.888 48.8812 251.048 48.8012C251.208 48.7212 251.328 48.6812 251.408 48.6812C251.622 48.6812 251.728 48.8146 251.728 49.0812C251.728 49.1879 251.715 49.4279 251.688 49.8012C251.688 50.1746 251.675 50.5879 251.648 51.0412C251.648 51.4679 251.635 51.8546 251.608 52.2012C251.608 52.3612 251.648 52.4412 251.728 52.4412C252.155 51.8812 252.635 51.3612 253.168 50.8812C253.702 50.4012 254.262 50.0012 254.848 49.6812C255.462 49.3612 256.075 49.2012 256.688 49.2012C257.462 49.2012 258.035 49.3612 258.408 49.6812C258.808 50.0012 259.008 50.4012 259.008 50.8812C259.008 51.2546 258.902 51.6546 258.688 52.0812C258.502 52.5079 258.248 52.8812 257.928 53.2012C257.635 53.4946 257.302 53.6412 256.928 53.6412C256.715 53.6412 256.488 53.6012 256.248 53.5212C256.008 53.4146 255.768 53.2946 255.528 53.1612C255.288 53.0546 255.035 52.9479 254.768 52.8412C254.528 52.7346 254.302 52.6812 254.088 52.6812C253.422 52.6812 252.822 52.9346 252.288 53.4412C251.755 53.9212 251.488 54.8812 251.488 56.3212V63.3612C251.488 63.8412 251.662 64.2146 252.008 64.4812C252.355 64.7212 252.888 64.9479 253.608 65.1612C253.902 65.2412 254.115 65.3346 254.248 65.4412C254.408 65.5212 254.488 65.6679 254.488 65.8812C254.488 66.2279 254.248 66.4013 253.768 66.4013C252.968 66.4013 252.208 66.3613 251.488 66.2812C250.795 66.2279 250.102 66.2012 249.408 66.2012C248.955 66.2012 248.515 66.2146 248.088 66.2412C247.688 66.2679 247.275 66.2946 246.848 66.3213C246.422 66.3746 245.942 66.4013 245.408 66.4013Z" fill="#1A1A1A"/>
</svg>
